<svg xmlns="http://www.w3.org/2000/svg" width="96.053" height="121.824" viewBox="0 0 96.053 121.824">
  <g id="Group_7" data-name="Group 7" transform="translate(0)">
    <path id="Path_1" data-name="Path 1" d="M2884.9,1763.836a45.8,45.8,0,1,1,24.113-88.369c2.886.622,2.531,3.375,0,3.153a35.793,35.793,0,0,0-23.092,65.411c5.773,3.863,14.432,5.728,12.256,13.988-1.155,4.352-6.261,7.638-13.278,5.773Z" transform="translate(-2848.22 -1673.815)" fill="#171a47" fill-rule="evenodd"/>
    <path id="Path_2" data-name="Path 2" d="M2799.027,3748.8a8.926,8.926,0,1,0-7.993-9.77A8.92,8.92,0,0,0,2799.027,3748.8Z" transform="translate(-2790.989 -3639.637)" fill="#ee3d3d" fill-rule="evenodd"/>
    <path id="Path_3" data-name="Path 3" d="M4560.027,1960.8a8.926,8.926,0,1,0-7.993-9.77A8.921,8.921,0,0,0,4560.027,1960.8Z" transform="translate(-4473.789 -1931.036)" fill="#171a47" fill-rule="evenodd"/>
    <path id="Path_4" data-name="Path 4" d="M3579.347,2379.469a45.8,45.8,0,1,1-24.113,88.37c-2.886-.622-2.531-3.375,0-3.153a35.793,35.793,0,0,0,23.092-65.411c-5.773-3.864-14.432-5.729-12.256-13.988,1.155-4.352,6.261-7.638,13.278-5.773Z" transform="translate(-3519.353 -2347.666)" fill="#ee3d3d" fill-rule="evenodd"/>
  </g>
</svg>
