<svg xmlns="http://www.w3.org/2000/svg" width="61" height="71" viewBox="0 0 61 71">
  <g id="Group_2" data-name="Group 2" transform="translate(-602 -255)">
    <g id="Layer_2" data-name="Layer 2" transform="translate(609.13 255)">
      <g id="Layer_1" data-name="Layer 1" transform="translate(-6 0)">
        <path id="Path_10" data-name="Path 10" d="M194.071,18.548A18.553,18.553,0,0,1,166.83,34.93,14.565,14.565,0,1,0,174.5,7.2c-.118-.014-.237-.026-.355-.036a3.61,3.61,0,0,1-.13-7.105c.3-.025.607-.041.912-.051.2,0,.4-.01.594-.01a18.547,18.547,0,0,1,18.548,18.55Z" transform="translate(-143.978 0)" fill="#f05454"/>
        <circle id="Ellipse_2" data-name="Ellipse 2" cx="3.794" cy="3.794" r="3.794" transform="translate(51.518 12.43)" fill="#070d59"/>
        <path id="Path_11" data-name="Path 11" d="M65.8,86.427a18.553,18.553,0,0,0,27.241,16.388A14.565,14.565,0,1,1,85.37,75.087c.118-.014.237-.026.355-.036a3.614,3.614,0,0,0,.137-7.111c-.3-.025-.607-.042-.912-.051-.2,0-.4-.01-.594-.01A18.547,18.547,0,0,0,65.8,86.427Z" transform="translate(-56.787 -58.582)" fill="#070d59"/>
        <circle id="Ellipse_3" data-name="Ellipse 3" cx="3.794" cy="3.794" r="3.794" transform="translate(0 21.726)" fill="#f05454"/>
      </g>
    </g>
    <text id="WARGA_DIGITAL" data-name="WARGA DIGITAL" transform="translate(602 324)" fill="#070d59" font-size="7" font-family="Montserrat-R, Montserrat" font-weight="700"><tspan x="0" y="0">WARGA </tspan><tspan y="0" fill="#f05454">DIGITAL</tspan></text>
  </g>
</svg>
