<svg id="Layer_2" data-name="Layer 2" xmlns="http://www.w3.org/2000/svg" width="106.041" height="83.233" viewBox="0 0 106.041 83.233">
  <g id="Layer_1" data-name="Layer 1" transform="translate(0 0)">
    <path id="Path_10" data-name="Path 10" d="M215.7,33.277A33.284,33.284,0,0,1,166.83,62.666a26.13,26.13,0,1,0,13.762-49.747c-.211-.025-.425-.047-.637-.064A6.477,6.477,0,0,1,179.722.108c.541-.044,1.089-.074,1.637-.091.354,0,.71-.017,1.067-.017A33.275,33.275,0,0,1,215.7,33.279Z" transform="translate(-125.832 0)" fill="#f05454"/>
    <circle id="Ellipse_2" data-name="Ellipse 2" cx="6.807" cy="6.807" r="6.807" transform="translate(92.426 22.299)" fill="#070d59"/>
    <path id="Path_11" data-name="Path 11" d="M65.8,101.154a33.284,33.284,0,0,0,48.872,29.4A26.13,26.13,0,1,1,100.91,80.809c.211-.025.425-.047.637-.064a6.483,6.483,0,0,0,.246-12.757c-.541-.044-1.089-.076-1.637-.091-.354,0-.71-.017-1.067-.017A33.274,33.274,0,0,0,65.8,101.154Z" transform="translate(-49.63 -51.199)" fill="#070d59"/>
    <circle id="Ellipse_3" data-name="Ellipse 3" cx="6.807" cy="6.807" r="6.807" transform="translate(0 38.978)" fill="#f05454"/>
  </g>
</svg>
