<svg xmlns="http://www.w3.org/2000/svg" width="20.059" height="18.055" viewBox="0 0 20.059 18.055">
  <g id="Group_41" data-name="Group 41" transform="translate(-1.97 -3)">
    <path id="Path_50" data-name="Path 50" d="M12,14l9-5L12,4,3,9Z" fill="none" stroke="#fff" stroke-width="1"/>
    <path id="Path_51" data-name="Path 51" d="M12,14l6.16-3.422a12.083,12.083,0,0,1,.665,6.479,11.952,11.952,0,0,0-6.825,3,11.952,11.952,0,0,0-6.824-3,12.078,12.078,0,0,1,.665-6.479Z" fill="none" stroke="#fff" stroke-width="1"/>
    <path id="Path_52" data-name="Path 52" d="M12,14l9-5L12,4,3,9Zm0,0,6.16-3.422a12.083,12.083,0,0,1,.665,6.479,11.952,11.952,0,0,0-6.825,3,11.952,11.952,0,0,0-6.824-3,12.078,12.078,0,0,1,.665-6.479ZM8,20V12.5l4-2.222" fill="none" stroke="#fff" stroke-linecap="round" stroke-linejoin="round" stroke-width="2"/>
  </g>
</svg>
