<svg xmlns="http://www.w3.org/2000/svg" width="16.002" height="16.001" viewBox="0 0 16.002 16.001">
  <path id="Path_53" data-name="Path 53" d="M10.394,2.08a1,1,0,0,0-.788,0l-7,3a1,1,0,0,0,0,1.84L5.25,8.051a1,1,0,0,1,.356-.257l4-1.714a1,1,0,1,1,.788,1.838L7.667,9.088l1.94.831a1,1,0,0,0,.787,0l7-3a1,1,0,0,0,0-1.838l-7-3ZM3.31,9.4,5,10.12v4.1a8.969,8.969,0,0,0-1.05-.174,1,1,0,0,1-.89-.89A11.115,11.115,0,0,1,3.31,9.4ZM9.3,16.573A9.026,9.026,0,0,0,7,14.935V10.978l1.818.78a3,3,0,0,0,2.364,0L16.69,9.4a11.026,11.026,0,0,1,.25,3.762,1,1,0,0,1-.89.89,8.968,8.968,0,0,0-5.35,2.524,1,1,0,0,1-1.4,0ZM6,18a1,1,0,0,0,1-1V14.935a8.935,8.935,0,0,0-2-.712V17A1,1,0,0,0,6,18Z" transform="translate(-1.998 -1.999)" fill="#f6f6f6"/>
</svg>
